<mxfile host="app.diagrams.net" modified="2024-07-16T20:14:57.221Z" agent="Mozilla/5.0 (Windows NT 10.0; Win64; x64) AppleWebKit/537.36 (KHTML, like Gecko) Chrome/126.0.0.0 Safari/537.36" etag="V83go9E2orOe04RNJ1JC" version="24.2.8" type="device">
  <diagram name="Page-1" id="wVoZVgWUMcnYTrS45Z8_">
    <mxGraphModel dx="1400" dy="707" grid="1" gridSize="10" guides="1" tooltips="1" connect="1" arrows="1" fold="1" page="1" pageScale="1" pageWidth="850" pageHeight="1100" math="0" shadow="0">
      <root>
        <mxCell id="0" />
        <mxCell id="1" parent="0" />
        <mxCell id="9fmoIT7r58lR0zZMZlZs-1" value="" style="whiteSpace=wrap;html=1;aspect=fixed;" vertex="1" parent="1">
          <mxGeometry x="83" y="40" width="790" height="790" as="geometry" />
        </mxCell>
        <mxCell id="9fmoIT7r58lR0zZMZlZs-10" value="" style="rounded=0;whiteSpace=wrap;html=1;" vertex="1" parent="1">
          <mxGeometry x="148" y="57.5" width="660" height="160" as="geometry" />
        </mxCell>
        <mxCell id="9fmoIT7r58lR0zZMZlZs-11" value="PFP" style="ellipse;whiteSpace=wrap;html=1;aspect=fixed;" vertex="1" parent="1">
          <mxGeometry x="210" y="65" width="145" height="145" as="geometry" />
        </mxCell>
        <mxCell id="9fmoIT7r58lR0zZMZlZs-12" value="&lt;h2 style=&quot;font-size: 21px;&quot;&gt;BRYAN HA&lt;/h2&gt;&lt;h3&gt;Fullstack Developer&lt;/h3&gt;&lt;div&gt;Contact&lt;/div&gt;&lt;div&gt;&lt;br&gt;&lt;/div&gt;" style="rounded=1;whiteSpace=wrap;html=1;align=center;horizontal=1;verticalAlign=middle;labelPosition=center;verticalLabelPosition=middle;textDirection=ltr;" vertex="1" parent="1">
          <mxGeometry x="380" y="80" width="170" height="110" as="geometry" />
        </mxCell>
        <mxCell id="9fmoIT7r58lR0zZMZlZs-14" value="" style="rounded=0;whiteSpace=wrap;html=1;" vertex="1" parent="1">
          <mxGeometry x="148" y="230" width="660" height="160" as="geometry" />
        </mxCell>
        <mxCell id="9fmoIT7r58lR0zZMZlZs-15" value="About" style="rounded=1;whiteSpace=wrap;html=1;" vertex="1" parent="1">
          <mxGeometry x="200" y="240" width="90" height="30" as="geometry" />
        </mxCell>
        <mxCell id="9fmoIT7r58lR0zZMZlZs-17" value="About Me section" style="rounded=1;whiteSpace=wrap;html=1;" vertex="1" parent="1">
          <mxGeometry x="200" y="280" width="555" height="90" as="geometry" />
        </mxCell>
        <mxCell id="9fmoIT7r58lR0zZMZlZs-18" value="" style="rounded=0;whiteSpace=wrap;html=1;" vertex="1" parent="1">
          <mxGeometry x="148" y="405" width="660" height="395" as="geometry" />
        </mxCell>
        <mxCell id="9fmoIT7r58lR0zZMZlZs-19" value="Work Experoience section" style="rounded=1;whiteSpace=wrap;html=1;" vertex="1" parent="1">
          <mxGeometry x="200" y="460" width="555" height="320" as="geometry" />
        </mxCell>
        <mxCell id="9fmoIT7r58lR0zZMZlZs-20" value="Work Experience" style="rounded=1;whiteSpace=wrap;html=1;" vertex="1" parent="1">
          <mxGeometry x="200" y="420" width="90" height="30" as="geometry" />
        </mxCell>
        <mxCell id="9fmoIT7r58lR0zZMZlZs-22" value="LinkedIn&lt;div&gt;Twitter&lt;/div&gt;&lt;div&gt;GitHub&lt;/div&gt;&lt;div&gt;Other Contacts&lt;/div&gt;" style="rounded=1;whiteSpace=wrap;html=1;" vertex="1" parent="1">
          <mxGeometry x="585" y="85" width="170" height="105" as="geometry" />
        </mxCell>
      </root>
    </mxGraphModel>
  </diagram>
</mxfile>
